# xmcd
#
# Track frame offsets:
# 150
# 21313
# 45913
# 69343
# 89130
# 107860
# 129265
# 147838
# 167680
# 187755
# 208463
# 227993
# 239868
# 262428
# 284035
# 308195
# 337435
#
# Disc length: 4795 seconds
#
#
# Revision: 1
# Processed by: cddbd v1.4PL0 Copyright (c) Steve Scherf et al.
# Submitted via: FreeRIP 2.10 
#
DISCID=1712b911
DTITLE=閉上眼睛去旅行 - 閉上眼睛去旅行
DYEAR=2003
DGENRE=Pop
TTITLE0=矜持
TTITLE1=如果雲知道
TTITLE2=用情
TTITLE3=你是我前世的知己
TTITLE4=街角的祝福
TTITLE5=認錯
TTITLE6=夢醒時分
TTITLE7=愛我
TTITLE8=點亮霓虹燈
TTITLE9=用心良苦
TTITLE10=容易受傷的女人
TTITLE11=橄欖樹
TTITLE12=回家
TTITLE13=囚鳥
TTITLE14=太傻
TTITLE15=魯冰花
TTITLE16=資料檔案
EXTD=
EXTT0=
EXTT1=
EXTT2=
EXTT3=
EXTT4=
EXTT5=
EXTT6=
EXTT7=
EXTT8=
EXTT9=
EXTT10=
EXTT11=
EXTT12=
EXTT13=
EXTT14=
EXTT15=
EXTT16=
PLAYORDER=
